<?xml version="1.0" encoding="utf-8"?>
<!-- Generator: Adobe Illustrator 16.0.3, SVG Export Plug-In . SVG Version: 6.00 Build 0)  -->
<!DOCTYPE svg PUBLIC "-//W3C//DTD SVG 1.1//EN" "http://www.w3.org/Graphics/SVG/1.1/DTD/svg11.dtd" [
	<!ENTITY ns_extend "http://ns.adobe.com/Extensibility/1.0/">
	<!ENTITY ns_ai "http://ns.adobe.com/AdobeIllustrator/10.0/">
	<!ENTITY ns_graphs "http://ns.adobe.com/Graphs/1.0/">
	<!ENTITY ns_vars "http://ns.adobe.com/Variables/1.0/">
	<!ENTITY ns_imrep "http://ns.adobe.com/ImageReplacement/1.0/">
	<!ENTITY ns_sfw "http://ns.adobe.com/SaveForWeb/1.0/">
	<!ENTITY ns_custom "http://ns.adobe.com/GenericCustomNamespace/1.0/">
	<!ENTITY ns_adobe_xpath "http://ns.adobe.com/XPath/1.0/">
]>
<svg version="1.1" id="Capa_1" xmlns:x="&ns_extend;" xmlns:i="&ns_ai;" xmlns:graph="&ns_graphs;"
	 xmlns="http://www.w3.org/2000/svg" xmlns:xlink="http://www.w3.org/1999/xlink" x="0px" y="0px" width="800px" height="800px"
	 viewBox="0 0 800 800" enable-background="new 0 0 800 800" xml:space="preserve">
<metadata>
	<sfw  xmlns="&ns_sfw;">
		<slices></slices>
		<sliceSourceBounds  y="16.647" x="17.333" width="763" height="764" bottomLeftOrigin="true"></sliceSourceBounds>
	</sfw>
</metadata>
<g>
	<ellipse fill="#2A431C" cx="398.833" cy="401.352" rx="381.5" ry="382.001"/>
	<ellipse fill="#A1BF3B" cx="398.833" cy="401.352" rx="347.544" ry="348.001"/>
	<ellipse fill="#2A431C" cx="398.833" cy="401.352" rx="309.594" ry="310.001"/>
	<g>
		<rect x="223.625" y="175.813" fill="#FFFFFF" width="21.563" height="22.313"/>
		<rect x="291.219" y="175.813" fill="#FFFFFF" width="21.563" height="22.313"/>
		<rect x="257.625" y="175.813" fill="#FFFFFF" width="21.563" height="22.313"/>
		<rect x="223.625" y="243.32" fill="#FFFFFF" width="21.563" height="22.313"/>
		<rect x="223.625" y="277.32" fill="#FFFFFF" width="21.563" height="22.313"/>
		<rect x="257.625" y="277.32" fill="#FFFFFF" width="21.563" height="22.313"/>
		<rect x="257.625" y="310.32" fill="#FFFFFF" width="21.563" height="22.313"/>
		<rect x="291.219" y="277.32" fill="#FFFFFF" width="21.563" height="22.313"/>
		<rect x="325.219" y="277.32" fill="#FFFFFF" width="21.563" height="22.313"/>
		<rect x="358.438" y="310.32" fill="#FFFFFF" width="21.563" height="22.313"/>
		<rect x="426.219" y="310.32" fill="#FFFFFF" width="21.563" height="22.313"/>
		<rect x="459.219" y="277.32" fill="#FFFFFF" width="21.563" height="22.313"/>
		<rect x="493.219" y="277.32" fill="#FFFFFF" width="21.563" height="22.313"/>
		<rect x="493.219" y="243.32" fill="#FFFFFF" width="21.563" height="22.313"/>
		<rect x="493.219" y="210.446" fill="#FFFFFF" width="21.563" height="22.313"/>
		<rect x="493.219" y="175.813" fill="#FFFFFF" width="21.563" height="22.313"/>
		<rect x="527.219" y="175.813" fill="#FFFFFF" width="21.563" height="22.313"/>
		<rect x="527.219" y="210.446" fill="#FFFFFF" width="21.563" height="22.313"/>
		<rect x="527.219" y="243.32" fill="#FFFFFF" width="21.563" height="22.313"/>
		<rect x="527.219" y="277.32" fill="#FFFFFF" width="21.563" height="22.313"/>
		<rect x="527.219" y="310.32" fill="#FFFFFF" width="21.563" height="22.313"/>
		<rect x="561.219" y="277.32" fill="#FFFFFF" width="21.563" height="22.313"/>
		<rect x="561.219" y="175.813" fill="#FFFFFF" width="21.563" height="22.313"/>
		<rect x="561.219" y="210.446" fill="#FFFFFF" width="21.563" height="22.313"/>
		<rect x="561.219" y="243.32" fill="#FFFFFF" width="21.563" height="22.313"/>
		<rect x="459.219" y="310.32" fill="#FFFFFF" width="21.563" height="22.313"/>
		<rect x="493.219" y="310.32" fill="#FFFFFF" width="21.563" height="22.313"/>
		<rect x="459.219" y="344.32" fill="#FFFFFF" width="21.563" height="22.313"/>
		<rect x="426.219" y="344.32" fill="#FFFFFF" width="21.563" height="22.313"/>
		<rect x="426.219" y="378.744" fill="#FFFFFF" width="21.563" height="22.313"/>
		<rect x="426.219" y="412.744" fill="#FFFFFF" width="21.563" height="22.313"/>
		<rect x="426.219" y="445.744" fill="#FFFFFF" width="21.563" height="22.313"/>
		<rect x="426.219" y="478.844" fill="#FFFFFF" width="21.563" height="22.313"/>
		<rect x="426.219" y="513.844" fill="#FFFFFF" width="21.563" height="22.313"/>
		<rect x="426.219" y="546.844" fill="#FFFFFF" width="21.563" height="22.313"/>
		<rect x="426.219" y="579.844" fill="#FFFFFF" width="21.563" height="22.313"/>
		<rect x="426.219" y="614.844" fill="#FFFFFF" width="21.563" height="22.313"/>
		<rect x="426.219" y="647.844" fill="#FFFFFF" width="21.563" height="22.313"/>
		<rect x="493.219" y="344.32" fill="#FFFFFF" width="21.563" height="22.313"/>
		<rect x="459.219" y="378.744" fill="#FFFFFF" width="21.563" height="22.313"/>
		<rect x="358.438" y="344.32" fill="#FFFFFF" width="21.563" height="22.313"/>
		<rect x="393.438" y="344.32" fill="#FFFFFF" width="21.563" height="22.313"/>
		<rect x="358.438" y="378.744" fill="#FFFFFF" width="21.563" height="22.313"/>
		<rect x="358.438" y="412.744" fill="#FFFFFF" width="21.563" height="22.313"/>
		<rect x="358.438" y="445.744" fill="#FFFFFF" width="21.563" height="22.313"/>
		<rect x="358.438" y="478.844" fill="#FFFFFF" width="21.563" height="22.313"/>
		<rect x="358.438" y="513.844" fill="#FFFFFF" width="21.563" height="22.313"/>
		<rect x="358.438" y="546.844" fill="#FFFFFF" width="21.563" height="22.313"/>
		<rect x="358.438" y="579.844" fill="#FFFFFF" width="21.563" height="22.313"/>
		<rect x="358.438" y="614.844" fill="#FFFFFF" width="21.563" height="22.313"/>
		<rect x="358.438" y="647.844" fill="#FFFFFF" width="21.563" height="22.313"/>
		<rect x="393.438" y="378.744" fill="#FFFFFF" width="21.563" height="22.313"/>
		<rect x="393.438" y="412.744" fill="#FFFFFF" width="21.563" height="22.313"/>
		<rect x="393.438" y="445.744" fill="#FFFFFF" width="21.563" height="22.313"/>
		<rect x="393.438" y="478.844" fill="#FFFFFF" width="21.563" height="22.313"/>
		<rect x="393.438" y="513.844" fill="#FFFFFF" width="21.563" height="22.313"/>
		<rect x="393.438" y="546.844" fill="#FFFFFF" width="21.563" height="22.313"/>
		<rect x="393.438" y="579.844" fill="#FFFFFF" width="21.563" height="22.313"/>
		<rect x="393.438" y="614.844" fill="#FFFFFF" width="21.563" height="22.313"/>
		<rect x="393.438" y="647.844" fill="#FFFFFF" width="21.563" height="22.313"/>
		<rect x="291.219" y="310.32" fill="#FFFFFF" width="21.563" height="22.313"/>
		<rect x="325.219" y="310.32" fill="#FFFFFF" width="21.563" height="22.313"/>
		<rect x="291.219" y="344.32" fill="#FFFFFF" width="21.563" height="22.313"/>
		<rect x="325.219" y="344.32" fill="#FFFFFF" width="21.563" height="22.313"/>
		<rect x="325.219" y="378.744" fill="#FFFFFF" width="21.563" height="22.313"/>
		<rect x="291.219" y="243.32" fill="#FFFFFF" width="21.563" height="22.313"/>
		<rect x="223.625" y="210.446" fill="#FFFFFF" width="21.563" height="22.313"/>
		<rect x="257.625" y="243.32" fill="#FFFFFF" width="21.563" height="22.313"/>
		<rect x="257.625" y="210.446" fill="#FFFFFF" width="21.563" height="22.313"/>
		<rect x="291.219" y="210.446" fill="#FFFFFF" width="21.563" height="22.313"/>
	</g>
</g>
</svg>
